<svg 
 xmlns="http://www.w3.org/2000/svg"
 xmlns:xlink="http://www.w3.org/1999/xlink"
 width="346px" height="56px">
<path fill-rule="evenodd"  fill="#10b981"
 d="M344.050,45.203 C340.062,51.653 332.717,55.154 324.846,55.430 C318.550,55.614 312.253,54.140 308.685,48.336 C308.362,47.845 308.084,47.315 307.845,46.764 C305.031,50.209 299.095,55.338 292.002,55.338 C286.440,55.338 281.613,51.376 281.613,45.019 C281.613,42.992 282.243,40.412 283.712,37.372 C285.811,32.857 289.798,25.579 293.996,18.945 C290.743,18.577 288.854,17.563 288.014,16.458 C286.545,14.523 287.595,13.601 290.008,13.694 C292.422,13.786 295.255,13.694 297.564,13.509 C300.817,8.534 303.021,5.494 305.434,2.453 C307.008,0.426 308.268,0.519 309.422,2.269 C310.157,3.375 310.576,4.941 310.576,6.047 C310.576,7.705 310.157,9.824 308.897,12.404 C312.150,12.772 313.934,14.246 314.669,15.352 C315.718,17.010 314.984,18.116 312.465,17.840 C310.576,17.655 307.848,17.840 305.539,18.116 C301.552,24.105 295.570,33.226 291.897,40.228 C290.638,42.716 290.008,45.111 290.008,47.138 C290.008,49.902 291.058,51.837 292.842,51.837 C296.934,51.837 302.391,46.032 306.064,39.122 C306.592,38.110 307.385,37.529 308.159,37.428 C308.685,36.539 309.379,35.736 310.260,35.069 C312.358,33.502 313.932,33.963 314.247,36.174 C317.710,31.844 321.383,27.053 324.112,23.091 C324.531,19.774 325.791,17.655 328.204,15.905 C329.883,14.615 331.772,13.970 333.346,13.970 C336.180,13.970 336.809,15.997 333.556,20.696 C333.451,21.801 333.346,23.368 333.346,24.565 C333.346,31.107 334.710,37.096 334.501,42.071 C334.396,44.374 333.871,46.954 332.717,48.981 C337.019,46.401 339.957,43.361 341.846,38.846 C342.791,36.727 344.365,37.372 345.099,38.846 C345.624,39.767 345.939,42.347 344.050,45.203 ZM324.112,32.120 C321.593,35.621 318.655,39.583 315.506,43.545 C316.766,47.875 318.969,51.100 321.278,51.100 C323.482,51.100 324.426,46.493 324.426,40.504 C324.426,37.556 324.321,34.608 324.112,32.120 ZM274.585,35.161 C273.431,35.069 272.381,35.069 271.332,35.069 C265.770,35.069 260.523,36.082 256.430,35.898 C250.974,35.713 248.770,33.594 247.930,30.646 C247.720,29.725 248.665,28.803 250.239,28.803 C257.795,28.803 263.251,28.066 268.079,28.066 C273.955,28.066 276.159,30.370 276.894,33.226 C277.208,34.424 276.684,35.253 274.585,35.161 ZM226.738,55.338 C220.127,55.338 216.454,51.284 216.454,45.848 C216.454,44.374 216.769,42.716 217.503,40.781 C219.287,35.806 223.380,30.738 227.577,26.408 C224.744,27.514 222.121,27.882 219.812,27.974 C211.207,43.729 199.978,54.969 187.176,55.154 C178.617,55.235 173.443,50.899 172.378,44.843 C170.704,47.761 163.793,55.338 155.171,55.338 C149.780,55.338 145.080,51.616 144.796,45.599 C144.758,45.682 144.724,45.765 144.683,45.848 C141.850,51.560 134.294,55.614 128.103,55.430 C121.387,55.246 117.714,51.192 117.714,45.848 C117.714,44.374 118.029,42.624 118.553,40.965 C120.127,36.358 124.850,30.738 128.942,26.500 C126.109,27.606 123.590,28.066 121.282,28.159 C116.140,40.873 106.590,54.417 95.257,55.154 C89.800,55.430 86.442,53.127 85.602,49.441 C82.349,52.482 78.152,54.969 73.639,54.969 C67.770,54.969 64.439,51.371 64.209,46.075 C61.673,49.472 55.412,55.338 47.826,55.338 C42.270,55.338 37.447,51.384 37.437,45.037 C37.402,45.093 37.372,45.147 37.335,45.203 C33.347,51.653 26.001,55.154 18.131,55.430 C11.834,55.614 5.538,54.140 1.970,48.336 C0.816,46.585 0.186,44.374 0.186,42.255 C0.186,39.491 1.236,36.819 3.544,35.069 C5.643,33.502 7.217,33.963 7.532,36.174 C10.995,31.844 14.668,27.053 17.396,23.091 C17.816,19.774 19.075,17.655 21.489,15.905 C23.168,14.615 25.057,13.970 26.631,13.970 C29.464,13.970 30.094,15.997 26.841,20.696 C26.736,21.801 26.631,23.368 26.631,24.565 C26.631,31.107 27.995,37.096 27.785,42.071 C27.680,44.374 27.156,46.954 26.001,48.981 C30.304,46.401 33.242,43.361 35.131,38.846 C36.075,36.727 37.650,37.372 38.384,38.846 C38.475,39.006 38.559,39.218 38.626,39.470 C38.885,38.797 39.185,38.099 39.536,37.372 C41.635,32.857 45.622,25.579 49.820,18.945 C46.567,18.577 44.678,17.563 43.838,16.458 C42.369,14.523 43.419,13.601 45.832,13.694 C48.246,13.786 51.079,13.694 53.388,13.509 C56.641,8.534 58.845,5.494 61.258,2.453 C62.832,0.426 64.092,0.519 65.246,2.269 C65.981,3.375 66.400,4.941 66.400,6.047 C66.400,7.705 65.981,9.824 64.721,12.404 C67.974,12.772 69.758,14.246 70.493,15.352 C71.542,17.010 70.808,18.116 68.289,17.840 C66.400,17.655 63.672,17.840 61.363,18.116 C57.376,24.105 51.394,33.226 47.721,40.228 C46.462,42.716 45.832,45.111 45.832,47.138 C45.832,49.902 46.882,51.837 48.666,51.837 C52.758,51.837 58.215,46.032 61.888,39.122 C62.884,37.214 64.817,36.820 65.800,38.347 C66.689,36.259 67.945,34.100 69.651,31.936 C78.047,21.341 86.547,17.195 92.108,17.195 C95.676,17.195 97.880,18.761 98.825,21.064 C99.664,19.867 100.399,18.945 100.818,18.392 C102.183,16.918 103.652,16.458 105.016,17.747 C106.170,18.853 106.905,20.511 106.905,22.538 C106.905,24.197 106.485,26.132 105.331,28.251 C104.072,30.738 102.393,32.949 100.818,35.529 C98.930,38.478 96.831,41.426 95.676,43.913 C94.837,45.940 94.102,47.875 94.102,49.165 C94.102,50.639 94.627,51.468 95.676,51.376 C101.763,50.823 110.263,40.320 115.090,27.329 C112.782,26.316 111.942,24.842 111.942,22.999 C111.942,18.300 118.448,11.575 121.806,11.390 C124.010,11.298 125.059,12.588 125.059,14.615 C125.059,16.734 124.325,19.406 123.276,22.446 C126.214,21.801 129.572,20.419 132.615,18.577 C134.609,17.379 135.658,17.103 137.128,18.485 C138.597,19.867 140.171,22.262 140.171,24.657 C140.171,25.763 139.646,27.053 138.597,28.343 C133.979,32.949 128.732,39.307 127.053,43.821 C126.529,45.203 126.319,46.677 126.319,47.875 C126.319,50.178 127.158,51.653 128.732,51.745 C132.405,52.021 138.282,45.940 141.640,39.215 C142.375,37.740 144.158,37.833 144.998,39.675 C145.188,40.008 145.348,40.469 145.446,41.017 C145.784,39.890 146.251,38.676 146.881,37.372 C148.980,32.857 152.967,25.579 157.165,18.945 C153.912,18.577 152.023,17.563 151.183,16.458 C149.714,14.523 150.764,13.601 153.177,13.694 C155.591,13.786 158.424,13.694 160.733,13.509 C163.986,8.534 166.190,5.494 168.603,2.453 C170.177,0.426 171.437,0.519 172.591,2.269 C173.326,3.375 173.745,4.941 173.745,6.047 C173.745,7.705 173.326,9.824 172.066,12.404 C175.320,12.772 177.103,14.246 177.838,15.352 C178.887,17.010 178.153,18.116 175.634,17.840 C173.745,17.655 171.017,17.840 168.708,18.116 C164.721,24.105 158.739,33.226 155.066,40.228 C153.807,42.716 153.177,45.111 153.177,47.138 C153.177,49.902 154.227,51.837 156.011,51.837 C160.103,51.837 165.560,46.032 169.233,39.122 C170.123,37.418 171.758,36.925 172.798,37.924 C173.316,35.949 174.148,33.898 175.318,31.844 C180.774,22.446 189.379,17.287 195.361,17.287 C196.725,17.287 197.880,17.471 198.929,18.024 C201.762,19.590 203.756,20.972 205.435,22.815 C205.960,23.644 206.380,24.750 206.380,25.855 C206.380,28.527 204.806,32.305 201.972,35.529 C198.929,38.846 194.941,41.149 190.324,41.149 C187.805,41.149 185.287,40.597 182.873,39.122 C182.244,40.965 181.929,42.900 181.929,44.558 C181.929,48.796 183.818,51.560 186.756,51.560 C197.250,51.560 208.164,38.293 213.725,27.053 C211.836,26.039 210.787,24.657 210.787,22.999 C210.787,18.116 217.818,11.390 221.386,11.298 C223.590,11.298 224.429,12.496 224.429,14.523 C224.429,16.458 223.590,19.222 222.435,22.262 C225.374,21.617 228.102,20.327 231.565,18.392 C233.244,17.471 234.713,16.826 235.973,18.300 C237.337,19.867 239.121,22.354 239.121,24.657 C239.121,25.763 238.596,26.961 237.337,28.159 C232.824,32.765 227.682,39.030 225.793,43.729 C225.374,44.927 225.059,46.585 225.059,47.691 C225.059,50.086 225.898,51.653 227.367,51.653 C231.145,51.653 237.127,46.032 240.275,39.583 C241.220,37.833 242.794,37.464 243.843,39.491 C244.368,40.504 244.683,43.084 243.318,45.664 C240.695,51.376 232.929,55.338 226.738,55.338 ZM17.396,32.120 C14.878,35.621 11.939,39.583 8.791,43.545 C10.050,47.875 12.254,51.100 14.563,51.100 C16.767,51.100 17.711,46.493 17.711,40.504 C17.711,37.556 17.606,34.608 17.396,32.120 ZM94.207,24.565 C94.207,23.368 93.997,22.815 93.578,22.815 C90.744,22.815 83.818,28.343 78.256,36.082 C75.108,40.504 73.534,45.019 73.534,48.152 C73.534,49.718 73.849,50.916 74.689,50.916 C78.152,50.916 83.189,45.572 88.331,37.648 C92.318,31.475 94.207,26.961 94.207,24.565 ZM186.651,36.266 C189.379,36.266 192.213,33.594 194.312,31.107 C197.250,27.790 199.663,23.275 198.614,22.538 C196.725,21.249 189.589,26.592 185.287,34.055 C184.762,34.884 184.552,35.253 184.342,35.713 C185.182,36.082 185.916,36.266 186.651,36.266 Z"/>
</svg>